<?xml version="1.0" standalone="no"?>
<!DOCTYPE svg PUBLIC "-//W3C//DTD SVG 20010904//EN"
 "http://www.w3.org/TR/2001/REC-SVG-20010904/DTD/svg10.dtd">
<svg version="1.0" xmlns="http://www.w3.org/2000/svg"
 width="746.000000pt" height="706.000000pt" viewBox="0 0 746.000000 706.000000"
 preserveAspectRatio="xMidYMid meet">
<metadata>
Created by potrace 1.10, written by Peter Selinger 2001-2011
</metadata>
<g transform="translate(0.000000,706.000000) scale(0.100000,-0.100000)"
fill="#000000" stroke="none">
<path d="M490 4870 l0 -1780 1778 2 1777 3 0 1775 0 1775 -1777 3 -1778 2 0
-1780z m3470 0 l0 -1690 -1690 0 -1690 0 0 1690 0 1690 1690 0 1690 0 0 -1690z"/>
<path d="M950 5330 c-38 -38 -25 -66 49 -113 42 -27 48 -42 23 -56 -15 -8 -25
-6 -44 8 -30 24 -60 12 -42 -16 26 -42 101 -42 129 1 22 34 6 69 -47 98 -49
27 -63 58 -26 58 13 0 29 -5 36 -12 9 -9 15 -9 25 1 10 10 7 16 -12 32 -30 25
-66 24 -91 -1z"/>
<path d="M1152 5334 c-27 -19 -29 -64 -4 -86 9 -9 32 -23 50 -32 19 -10 32
-24 32 -35 0 -29 -30 -35 -60 -12 -18 13 -31 16 -41 10 -21 -14 34 -59 72 -59
35 0 69 31 69 64 0 25 -44 69 -80 81 -30 10 -26 45 5 45 14 0 25 -4 25 -10 0
-13 11 -13 30 0 13 9 12 13 -9 30 -28 24 -59 25 -89 4z"/>
<path d="M1320 5234 l0 -117 52 5 c71 7 98 38 98 111 0 64 -18 93 -68 107 -83
23 -82 25 -82 -106z m93 59 c39 -45 17 -133 -34 -133 -17 0 -19 8 -19 75 0 66
2 75 18 75 11 0 26 -8 35 -17z"/>
<path d="M1517 5343 c-4 -3 -7 -55 -7 -115 0 -101 1 -108 20 -108 17 0 20 7
20 49 0 28 4 53 10 56 5 3 23 -19 41 -50 21 -38 37 -55 51 -55 23 0 24 -4 -21
82 l-35 65 27 35 c31 40 33 48 13 48 -8 0 -30 -19 -50 -42 l-36 -43 0 43 c0
40 -14 55 -33 35z"/>
<path d="M1932 5334 c-27 -19 -29 -64 -4 -86 9 -8 31 -22 47 -29 31 -15 48
-58 23 -60 -26 -3 -43 3 -54 17 -11 14 -44 10 -44 -6 0 -17 54 -50 81 -50 16
0 38 9 49 20 40 40 17 92 -51 120 -36 15 -40 50 -6 50 13 0 27 -4 33 -10 6 -6
15 -6 24 1 13 8 11 12 -9 29 -28 24 -59 25 -89 4z"/>
<path d="M2302 5338 c3 -7 14 -14 26 -16 20 -3 22 -9 22 -82 0 -74 -1 -79 -22
-82 -13 -2 -24 -11 -26 -20 -3 -16 5 -18 62 -18 59 0 66 2 66 20 0 15 -7 20
-25 20 -25 0 -25 0 -25 95 l0 95 -41 0 c-28 0 -39 -4 -37 -12z"/>
<path d="M2738 5339 c-10 -6 -18 -19 -18 -29 0 -11 -7 -20 -15 -20 -8 0 -15
-9 -15 -20 0 -11 7 -20 15 -20 11 0 15 -12 15 -48 0 -61 16 -85 55 -80 36 4
48 35 13 34 -20 -1 -23 4 -26 46 -3 44 -2 47 25 50 37 4 37 32 1 36 -21 3 -27
9 -30 32 -3 24 -6 27 -20 19z"/>
<path d="M2935 5340 c-8 -14 3 -30 21 -30 8 0 14 9 14 20 0 21 -24 28 -35 10z"/>
<path d="M2128 5276 c-43 -32 -42 -123 2 -146 55 -29 120 11 120 75 0 66 -73
108 -122 71z m80 -66 c3 -24 -2 -38 -14 -47 -23 -17 -29 -16 -48 3 -34 34 -12
87 34 82 21 -2 26 -9 28 -38z"/>
<path d="M2490 5222 c0 -87 13 -101 88 -100 l52 1 0 84 c0 75 -2 84 -17 81
-15 -3 -19 -15 -21 -65 -2 -42 -7 -63 -17 -67 -32 -12 -44 5 -47 67 -2 50 -6
62 -20 65 -16 3 -18 -5 -18 -66z"/>
<path d="M2890 5270 c0 -13 7 -20 20 -20 17 0 20 -7 20 -45 0 -38 -3 -45 -20
-45 -13 0 -20 -7 -20 -20 0 -19 5 -21 63 -18 47 2 62 7 62 18 0 8 -10 16 -22
18 -21 3 -23 9 -23 68 l0 64 -40 0 c-33 0 -40 -3 -40 -20z"/>
<path d="M3095 5265 c-52 -51 -16 -145 55 -145 44 0 70 31 70 83 0 48 -6 59
-37 76 -34 17 -62 13 -88 -14z m89 -48 c8 -23 6 -31 -11 -48 -29 -30 -63 -11
-63 35 0 40 7 48 39 44 18 -2 29 -12 35 -31z"/>
<path d="M3270 5203 c0 -76 2 -83 20 -83 16 0 19 8 22 63 3 57 5 62 27 65 31
5 41 -12 41 -75 0 -40 4 -53 15 -53 12 0 15 14 15 68 0 86 -13 100 -87 99
l-53 -1 0 -83z"/>
<path d="M3496 5277 c-30 -22 -17 -59 32 -86 32 -17 41 -26 33 -34 -8 -8 -20
-8 -41 0 -36 14 -53 -3 -25 -24 24 -17 66 -17 89 0 30 22 17 59 -32 85 -48 27
-47 46 3 36 38 -7 55 10 26 25 -27 15 -63 14 -85 -2z"/>
<path d="M1942 4788 c-7 -7 -12 -27 -12 -45 l0 -33 340 0 340 0 0 26 c0 14 -5
34 -10 45 -10 18 -25 19 -328 19 -234 0 -321 -3 -330 -12z"/>
<path d="M1932 4443 l3 -238 335 0 335 0 3 238 2 237 -340 0 -340 0 2 -237z
m255 78 l42 -48 -48 -47 c-25 -25 -50 -46 -54 -46 -17 0 -4 27 30 62 l37 38
-37 38 c-39 40 -45 52 -24 52 6 0 31 -22 54 -49z m236 -126 c1 -6 -37 -11 -95
-13 -84 -2 -98 0 -98 13 0 13 14 15 95 13 53 -2 96 -7 98 -13z"/>
</g>
</svg>
